<svg xmlns="http://www.w3.org/2000/svg" viewBox="0 0 1600 900" width="1600" height="900">
  <defs>
    <linearGradient id="bgVava" x1="0%" y1="0%" x2="100%" y2="100%">
      <stop offset="0%" stop-color="#11121f" />
      <stop offset="100%" stop-color="#08090d" />
    </linearGradient>
    <linearGradient id="accentVava" x1="0%" y1="0%" x2="100%" y2="100%">
      <stop offset="0%" stop-color="#f7dd7e" />
      <stop offset="100%" stop-color="#b9881d" />
    </linearGradient>
  </defs>

  <rect width="1600" height="900" fill="url(#bgVava)" />
  <rect x="90" y="90" width="1420" height="720" rx="34" fill="#151723" stroke="#d4af37" stroke-opacity="0.2" />

  <circle cx="800" cy="430" r="255" fill="#0f1220" stroke="#d4af37" stroke-opacity="0.18" stroke-width="2" />
  <circle cx="800" cy="430" r="185" fill="none" stroke="#d4af37" stroke-opacity="0.16" stroke-width="2" stroke-dasharray="10 12" />
  <circle cx="800" cy="430" r="120" fill="#141826" stroke="#d4af37" stroke-opacity="0.3" stroke-width="3" />

  <rect x="740" y="360" width="120" height="170" rx="40" fill="url(#accentVava)" />
  <path d="M760 430c0-25 18-46 40-46 22 0 40 21 40 46" fill="none" stroke="#0f1220" stroke-width="10" stroke-linecap="round" />
  <path d="M780 520h40" stroke="#0f1220" stroke-width="10" stroke-linecap="round" />
  <path d="M780 540h40" stroke="#0f1220" stroke-width="10" stroke-linecap="round" />

  <path d="M500 430h80" stroke="url(#accentVava)" stroke-width="10" stroke-linecap="round" />
  <path d="M600 400h70" stroke="url(#accentVava)" stroke-width="8" stroke-linecap="round" />
  <path d="M600 460h70" stroke="url(#accentVava)" stroke-width="8" stroke-linecap="round" />
  <path d="M1020 430h80" stroke="url(#accentVava)" stroke-width="10" stroke-linecap="round" />
  <path d="M930 400h70" stroke="url(#accentVava)" stroke-width="8" stroke-linecap="round" />
  <path d="M930 460h70" stroke="url(#accentVava)" stroke-width="8" stroke-linecap="round" />

  <rect x="220" y="200" width="280" height="110" rx="20" fill="#12131c" stroke="#d4af37" stroke-opacity="0.16" />
  <rect x="245" y="225" width="120" height="16" rx="8" fill="#f2d16b" fill-opacity="0.24" />
  <rect x="245" y="255" width="200" height="14" rx="7" fill="#f2d16b" fill-opacity="0.16" />
  <rect x="245" y="280" width="180" height="12" rx="6" fill="#f2d16b" fill-opacity="0.12" />

  <rect x="1100" y="200" width="280" height="110" rx="20" fill="#12131c" stroke="#d4af37" stroke-opacity="0.16" />
  <rect x="1125" y="225" width="160" height="16" rx="8" fill="#f2d16b" fill-opacity="0.24" />
  <rect x="1125" y="255" width="220" height="14" rx="7" fill="#f2d16b" fill-opacity="0.16" />
  <rect x="1125" y="280" width="190" height="12" rx="6" fill="#f2d16b" fill-opacity="0.12" />

  <text x="140" y="790" fill="#f2d16b" font-size="38" font-family="Segoe UI, Arial, sans-serif" font-weight="600" letter-spacing="4">VAVA</text>
</svg>
