<svg xmlns="http://www.w3.org/2000/svg" viewBox="0 0 1600 900" width="1600" height="900">
  <defs>
    <linearGradient id="bgFace" x1="0%" y1="0%" x2="100%" y2="100%">
      <stop offset="0%" stop-color="#11131b" />
      <stop offset="100%" stop-color="#08090d" />
    </linearGradient>
    <linearGradient id="accentFace" x1="0%" y1="0%" x2="100%" y2="100%">
      <stop offset="0%" stop-color="#f6d66d" />
      <stop offset="100%" stop-color="#b88b1c" />
    </linearGradient>
  </defs>

  <rect width="1600" height="900" fill="url(#bgFace)" />
  <rect x="90" y="90" width="1420" height="720" rx="34" fill="#151822" stroke="#d4af37" stroke-opacity="0.2" />

  <circle cx="420" cy="420" r="240" fill="#0f1219" stroke="#d4af37" stroke-opacity="0.25" stroke-width="2" />
  <circle cx="420" cy="420" r="190" fill="none" stroke="#d4af37" stroke-opacity="0.18" stroke-width="2" stroke-dasharray="8 10" />
  <circle cx="420" cy="420" r="140" fill="#131722" stroke="#d4af37" stroke-opacity="0.2" stroke-width="2" />

  <path d="M330 390c16-72 78-118 160-118 75 0 134 41 154 118" fill="none" stroke="url(#accentFace)" stroke-width="12" stroke-linecap="round" />
  <circle cx="380" cy="390" r="28" fill="#f2d16b" fill-opacity="0.15" stroke="#f2d16b" stroke-opacity="0.8" stroke-width="4" />
  <circle cx="460" cy="390" r="28" fill="#f2d16b" fill-opacity="0.15" stroke="#f2d16b" stroke-opacity="0.8" stroke-width="4" />
  <circle cx="380" cy="390" r="10" fill="#f2d16b" />
  <circle cx="460" cy="390" r="10" fill="#f2d16b" />
  <path d="M352 485c41 34 110 36 154 0" fill="none" stroke="#f2d16b" stroke-opacity="0.8" stroke-width="10" stroke-linecap="round" />

  <rect x="760" y="210" width="510" height="240" rx="26" fill="#121622" stroke="#d4af37" stroke-opacity="0.25" />
  <rect x="790" y="245" width="190" height="18" rx="9" fill="#d4af37" fill-opacity="0.72" />
  <rect x="790" y="285" width="300" height="14" rx="7" fill="#f2d16b" fill-opacity="0.25" />
  <rect x="790" y="315" width="270" height="14" rx="7" fill="#f2d16b" fill-opacity="0.2" />
  <rect x="790" y="345" width="210" height="14" rx="7" fill="#f2d16b" fill-opacity="0.15" />
  <circle cx="1170" cy="330" r="72" fill="#0f1219" stroke="#d4af37" stroke-opacity="0.3" stroke-width="3" />
  <path d="M1138 330c8-26 25-42 48-42 22 0 39 16 48 42" fill="none" stroke="url(#accentFace)" stroke-width="8" stroke-linecap="round" />
  <circle cx="1158" cy="330" r="10" fill="#f2d16b" />
  <circle cx="1186" cy="330" r="10" fill="#f2d16b" />

  <rect x="760" y="500" width="510" height="160" rx="26" fill="#121622" stroke="#d4af37" stroke-opacity="0.2" />
  <path d="M850 610c48-38 122-38 170 0" fill="none" stroke="#f2d16b" stroke-opacity="0.75" stroke-width="8" stroke-linecap="round" />
  <line x1="820" y1="560" x2="1080" y2="560" stroke="#d4af37" stroke-opacity="0.25" stroke-width="4" />
  <line x1="820" y1="590" x2="1030" y2="590" stroke="#d4af37" stroke-opacity="0.18" stroke-width="4" />

  <text x="120" y="780" fill="#f2d16b" font-size="38" font-family="Segoe UI, Arial, sans-serif" font-weight="600" letter-spacing="4">FACEINSIGHT</text>
</svg>
