<svg width="1200" height="750" viewBox="0 0 1200 750" fill="none" xmlns="http://www.w3.org/2000/svg">
  <rect width="1200" height="750" rx="32" fill="#0D1016"/>
  <rect x="90" y="95" width="1020" height="565" rx="28" fill="#151B25" stroke="#D4AF37" stroke-opacity="0.25"/>
  <circle cx="340" cy="290" r="165" fill="#11171F" stroke="#D4AF37" stroke-opacity="0.3" stroke-width="3"/>
  <path d="M240 330C260 250 340 200 420 230C500 260 500 350 420 390C350 422 250 390 240 330Z" fill="#D4AF37" fill-opacity="0.18"/>
  <path d="M176 455H512" stroke="#D4AF37" stroke-width="8" stroke-linecap="round"/>
  <path d="M176 495H430" stroke="#F3CF55" stroke-width="6" stroke-linecap="round" opacity="0.7"/>
  <rect x="670" y="190" width="280" height="200" rx="22" fill="#10161E" stroke="#D4AF37" stroke-opacity="0.25"/>
  <path d="M738 336V248" stroke="#D4AF37" stroke-width="8" stroke-linecap="round"/>
  <path d="M738 248H820" stroke="#D4AF37" stroke-width="8" stroke-linecap="round"/>
  <path d="M820 248V336" stroke="#D4AF37" stroke-width="8" stroke-linecap="round"/>
  <path d="M738 336H820" stroke="#D4AF37" stroke-width="8" stroke-linecap="round"/>
  <rect x="680" y="455" width="260" height="110" rx="16" fill="#11171F" stroke="#D4AF37" stroke-opacity="0.2"/>
  <rect x="710" y="485" width="140" height="10" rx="5" fill="#D4AF37"/>
  <rect x="710" y="510" width="180" height="8" rx="4" fill="#F3CF55" fill-opacity="0.75"/>
  <path d="M140 620C305 560 450 560 590 620" stroke="#D4AF37" stroke-opacity="0.15" stroke-width="3"/>
</svg>
