<svg xmlns="http://www.w3.org/2000/svg" viewBox="0 0 1600 900" width="1600" height="900">
  <defs>
    <radialGradient id="bg_fs" cx="50%" cy="40%" r="80%">
      <stop offset="0%" stop-color="#16121a"/>
      <stop offset="100%" stop-color="#0b0b0d"/>
    </radialGradient>
    <filter id="glow_fs">
      <feGaussianBlur stdDeviation="3" result="coloredBlur"/>
      <feMerge><feMergeNode in="coloredBlur"/><feMergeNode in="SourceGraphic"/></feMerge>
    </filter>
  </defs>

  <rect width="1600" height="900" fill="url(#bg_fs)"/>

  <!-- Grid -->
  <g opacity="0.05" stroke="#d4af37" stroke-width="0.5">
    <line x1="0" y1="180" x2="1600" y2="180"/><line x1="0" y1="360" x2="1600" y2="360"/>
    <line x1="0" y1="540" x2="1600" y2="540"/><line x1="0" y1="720" x2="1600" y2="720"/>
    <line x1="160" y1="0" x2="160" y2="900"/><line x1="320" y1="0" x2="320" y2="900"/>
    <line x1="480" y1="0" x2="480" y2="900"/><line x1="640" y1="0" x2="640" y2="900"/>
    <line x1="800" y1="0" x2="800" y2="900"/><line x1="960" y1="0" x2="960" y2="900"/>
    <line x1="1120" y1="0" x2="1120" y2="900"/><line x1="1280" y1="0" x2="1280" y2="900"/>
    <line x1="1440" y1="0" x2="1440" y2="900"/>
  </g>

  <!-- Top navigation bar -->
  <rect x="100" y="60" width="1400" height="55" rx="8" fill="#121216" stroke="#d4af3720" stroke-width="1"/>
  <circle cx="135" cy="87" r="8" fill="#d4af37" opacity="0.8"/>
  <text x="160" y="93" font-family="monospace" font-size="15" fill="#f5f5f7" font-weight="bold" letter-spacing="2">FashionStore</text>
  <!-- Nav links -->
  <rect x="900" y="72" width="80" height="30" rx="4" fill="#d4af3715"/>
  <text x="940" y="92" font-family="monospace" font-size="11" fill="#d4af37" text-anchor="middle">Shop</text>
  <text x="1025" y="92" font-family="monospace" font-size="11" fill="#9ea0a8">Brands</text>
  <text x="1110" y="92" font-family="monospace" font-size="11" fill="#9ea0a8">Sale</text>
  <!-- Cart icon -->
  <rect x="1400" y="70" width="75" height="30" rx="4" fill="#d4af37" opacity="0.9"/>
  <text x="1437" y="90" font-family="monospace" font-size="11" fill="#0b0b0d" text-anchor="middle" font-weight="bold">Cart (3)</text>

  <!-- Left sidebar filters -->
  <rect x="100" y="135" width="200" height="680" rx="6" fill="#121216" stroke="#d4af3718" stroke-width="1"/>
  <text x="120" y="165" font-family="monospace" font-size="11" fill="#d4af37" letter-spacing="2">FILTERS</text>
  <line x1="115" y1="175" x2="285" y2="175" stroke="#d4af3730" stroke-width="1"/>
  <text x="120" y="200" font-family="monospace" font-size="10" fill="#9ea0a8">CATEGORY</text>
  <rect x="120" y="210" width="70" height="22" rx="3" fill="#d4af3720" stroke="#d4af3750" stroke-width="1"/>
  <text x="155" y="225" font-family="monospace" font-size="10" fill="#d4af37" text-anchor="middle">Dresses</text>
  <rect x="197" y="210" width="70" height="22" rx="3" fill="#1a1a22"/>
  <text x="232" y="225" font-family="monospace" font-size="10" fill="#62646c" text-anchor="middle">Tops</text>
  <text x="120" y="258" font-family="monospace" font-size="10" fill="#9ea0a8">PRICE RANGE</text>
  <rect x="120" y="268" width="160" height="4" rx="2" fill="#1a1a22"/>
  <rect x="120" y="268" width="110" height="4" rx="2" fill="#d4af37" opacity="0.7"/>
  <circle cx="230" cy="270" r="7" fill="#d4af37"/>
  <text x="120" y="295" font-family="monospace" font-size="10" fill="#62646c">$0</text>
  <text x="268" y="295" font-family="monospace" font-size="10" fill="#d4af37">$280</text>
  <text x="120" y="330" font-family="monospace" font-size="10" fill="#9ea0a8">SIZE</text>
  <g font-family="monospace" font-size="10">
    <rect x="120" y="338" width="28" height="22" rx="3" fill="#d4af3720" stroke="#d4af3550" stroke-width="1"/>
    <text x="134" y="353" fill="#d4af37" text-anchor="middle">XS</text>
    <rect x="154" y="338" width="28" height="22" rx="3" fill="#1a1a22"/>
    <text x="168" y="353" fill="#62646c" text-anchor="middle">S</text>
    <rect x="188" y="338" width="28" height="22" rx="3" fill="#d4af3720" stroke="#d4af3550" stroke-width="1"/>
    <text x="202" y="353" fill="#d4af37" text-anchor="middle">M</text>
    <rect x="222" y="338" width="28" height="22" rx="3" fill="#1a1a22"/>
    <text x="236" y="353" fill="#62646c" text-anchor="middle">L</text>
  </g>
  <text x="120" y="400" font-family="monospace" font-size="10" fill="#9ea0a8">COLOR</text>
  <circle cx="135" cy="420" r="10" fill="#c0392b"/>
  <circle cx="162" cy="420" r="10" fill="#2c3e50"/>
  <circle cx="189" cy="420" r="10" fill="#f1c40f"/>
  <circle cx="216" cy="420" r="10" fill="#ecf0f1" stroke="#333" stroke-width="1"/>
  <circle cx="243" cy="420" r="10" fill="#1a1a22" stroke="#d4af3740" stroke-width="1"/>

  <!-- Product cards grid -->
  <!-- Card 1 -->
  <rect x="330" y="135" width="290" height="370" rx="6" fill="#121216" stroke="#d4af3718" stroke-width="1"/>
  <rect x="330" y="135" width="290" height="240" rx="6" fill="#1a1520"/>
  <!-- Dress silhouette -->
  <path d="M475 160 L440 200 L430 310 L520 310 L510 200 Z" fill="#d4af3715" stroke="#d4af3740" stroke-width="1.5"/>
  <path d="M460 160 L455 180 L475 190 L495 180 L490 160 Z" fill="#d4af3720"/>
  <rect x="355" y="358" width="80" height="18" rx="3" fill="#d4af3715"/>
  <text x="395" y="371" font-family="monospace" font-size="9" fill="#d4af37" text-anchor="middle">DRESS</text>
  <text x="345" y="400" font-family="monospace" font-size="12" fill="#f5f5f7">Summer Elegance</text>
  <text x="345" y="420" font-family="monospace" font-size="11" fill="#d4af37">$129.99</text>
  <text x="420" y="420" font-family="monospace" font-size="10" fill="#62646c" text-decoration="line-through">$180</text>
  <rect x="345" y="435" width="100" height="28" rx="4" fill="#d4af37"/>
  <text x="395" y="453" font-family="monospace" font-size="10" fill="#0b0b0d" text-anchor="middle" font-weight="bold">Add to Cart</text>

  <!-- Card 2 -->
  <rect x="650" y="135" width="290" height="370" rx="6" fill="#121216" stroke="#d4af3740" stroke-width="1.5"/>
  <!-- FEATURED badge -->
  <rect x="650" y="135" width="290" height="240" rx="6" fill="#1a1520"/>
  <rect x="660" y="145" width="70" height="20" rx="3" fill="#d4af37"/>
  <text x="695" y="159" font-family="monospace" font-size="9" fill="#0b0b0d" text-anchor="middle" font-weight="bold">FEATURED</text>
  <!-- Top silhouette -->
  <path d="M795 160 L760 185 L755 280 L835 280 L830 185 Z" fill="#d4af3720" stroke="#d4af3560" stroke-width="1.5"/>
  <text x="665" y="400" font-family="monospace" font-size="12" fill="#f5f5f7">Luxe Blazer Co.</text>
  <text x="665" y="420" font-family="monospace" font-size="11" fill="#d4af37">$219.99</text>
  <rect x="665" y="435" width="110" height="28" rx="4" fill="#d4af37"/>
  <text x="720" y="453" font-family="monospace" font-size="10" fill="#0b0b0d" text-anchor="middle" font-weight="bold">Add to Cart</text>

  <!-- Card 3 -->
  <rect x="970" y="135" width="290" height="370" rx="6" fill="#121216" stroke="#d4af3718" stroke-width="1"/>
  <rect x="970" y="135" width="290" height="240" rx="6" fill="#1a1520"/>
  <path d="M1115 170 L1085 200 L1080 290 L1150 290 L1145 200 Z" fill="#d4af3715" stroke="#d4af3540" stroke-width="1.5"/>
  <text x="985" y="400" font-family="monospace" font-size="12" fill="#f5f5f7">Noir Collection</text>
  <text x="985" y="420" font-family="monospace" font-size="11" fill="#d4af37">$159.99</text>
  <rect x="985" y="435" width="100" height="28" rx="4" fill="#d4af37"/>
  <text x="1035" y="453" font-family="monospace" font-size="10" fill="#0b0b0d" text-anchor="middle" font-weight="bold">Add to Cart</text>

  <!-- Card 4 -->
  <rect x="1290" y="135" width="210" height="290" rx="6" fill="#121216" stroke="#d4af3718" stroke-width="1"/>
  <rect x="1290" y="135" width="210" height="180" rx="6" fill="#1a1520"/>
  <text x="1305" y="358" font-family="monospace" font-size="11" fill="#f5f5f7">Spring Set</text>
  <text x="1305" y="378" font-family="monospace" font-size="11" fill="#d4af37">$89.99</text>
  <rect x="1305" y="395" width="90" height="22" rx="4" fill="#d4af37"/>
  <text x="1350" y="410" font-family="monospace" font-size="9" fill="#0b0b0d" text-anchor="middle" font-weight="bold">Add to Cart</text>

  <!-- Bottom row - mini cards -->
  <rect x="330" y="530" width="175" height="240" rx="6" fill="#121216" stroke="#d4af3715" stroke-width="1"/>
  <rect x="525" y="530" width="175" height="240" rx="6" fill="#121216" stroke="#d4af3715" stroke-width="1"/>
  <rect x="720" y="530" width="175" height="240" rx="6" fill="#121216" stroke="#d4af3715" stroke-width="1"/>

  <!-- Search bar bottom area -->
  <rect x="915" y="540" width="590" height="220" rx="8" fill="#121216" stroke="#d4af3720" stroke-width="1"/>
  <text x="935" y="575" font-family="monospace" font-size="11" fill="#d4af37" letter-spacing="2">RECENTLY VIEWED</text>
  <rect x="935" y="595" width="100" height="100" rx="4" fill="#1a1520"/>
  <rect x="1050" y="595" width="100" height="100" rx="4" fill="#1a1520"/>
  <rect x="1165" y="595" width="100" height="100" rx="4" fill="#1a1520"/>
  <rect x="1280" y="595" width="100" height="100" rx="4" fill="#d4af3710" stroke="#d4af3530" stroke-width="1"/>
  <text x="1330" y="650" font-family="monospace" font-size="20" fill="#d4af37" text-anchor="middle">+</text>

  <!-- Title -->
  <text x="800" y="840" font-family="'Outfit', sans-serif" font-size="26" fill="#d4af37" text-anchor="middle" font-weight="300" letter-spacing="5" opacity="0.85" filter="url(#glow_fs)">FASHIONSTORE · PREMIUM E-COMMERCE PLATFORM</text>
</svg>
