<svg xmlns="http://www.w3.org/2000/svg" viewBox="0 0 1600 900" width="1600" height="900">
  <defs>
    <linearGradient id="bgFashion" x1="0%" y1="0%" x2="100%" y2="100%">
      <stop offset="0%" stop-color="#18141c" />
      <stop offset="100%" stop-color="#09090d" />
    </linearGradient>
    <linearGradient id="accentFashion" x1="0%" y1="0%" x2="100%" y2="100%">
      <stop offset="0%" stop-color="#f4d76f" />
      <stop offset="100%" stop-color="#b88616" />
    </linearGradient>
  </defs>

  <rect width="1600" height="900" fill="url(#bgFashion)" />
  <rect x="90" y="90" width="1420" height="720" rx="34" fill="#14131a" stroke="#d4af37" stroke-opacity="0.2" />

  <rect x="140" y="150" width="1320" height="90" rx="22" fill="#111117" stroke="#d4af37" stroke-opacity="0.2" />
  <circle cx="200" cy="195" r="16" fill="#d4af37" />
  <rect x="230" y="182" width="140" height="26" rx="13" fill="#d4af37" fill-opacity="0.16" />
  <rect x="940" y="176" width="88" height="38" rx="12" fill="#d4af37" fill-opacity="0.16" />
  <rect x="1048" y="176" width="92" height="38" rx="12" fill="#f2d16b" fill-opacity="0.12" />
  <rect x="1156" y="176" width="92" height="38" rx="12" fill="#f2d16b" fill-opacity="0.1" />
  <rect x="1280" y="170" width="120" height="50" rx="14" fill="url(#accentFashion)" />
  <text x="1340" y="202" fill="#0b0b0d" font-size="20" font-family="Segoe UI, Arial, sans-serif" font-weight="700" text-anchor="middle">Cart</text>

  <rect x="150" y="280" width="250" height="470" rx="24" fill="#12121a" stroke="#d4af37" stroke-opacity="0.16" />
  <rect x="175" y="315" width="200" height="130" rx="18" fill="#1e1825" />
  <path d="M225 370c18-24 41-39 78-39 28 0 57 10 74 39" fill="none" stroke="#f2d16b" stroke-opacity="0.8" stroke-width="8" stroke-linecap="round" />
  <path d="M250 390h120" stroke="#f2d16b" stroke-opacity="0.6" stroke-width="8" stroke-linecap="round" />
  <rect x="190" y="470" width="64" height="16" rx="8" fill="#d4af37" fill-opacity="0.8" />
  <rect x="190" y="500" width="150" height="12" rx="6" fill="#f2d16b" fill-opacity="0.24" />
  <rect x="190" y="525" width="132" height="12" rx="6" fill="#f2d16b" fill-opacity="0.18" />
  <rect x="190" y="600" width="100" height="34" rx="10" fill="#d4af37" />
  <text x="240" y="623" fill="#0b0b0d" font-size="16" font-family="Segoe UI, Arial, sans-serif" font-weight="700" text-anchor="middle">Shop</text>

  <rect x="430" y="280" width="300" height="220" rx="24" fill="#14131b" stroke="#d4af37" stroke-opacity="0.16" />
  <rect x="455" y="305" width="250" height="160" rx="20" fill="#231d2b" />
  <path d="M525 390c36-48 86-67 126-42 10 6 18 15 24 24" fill="none" stroke="url(#accentFashion)" stroke-width="10" stroke-linecap="round" />
  <path d="M535 385h98" stroke="#f2d16b" stroke-opacity="0.8" stroke-width="8" stroke-linecap="round" />
  <rect x="455" y="490" width="96" height="18" rx="9" fill="#d4af37" fill-opacity="0.8" />
  <text x="486" y="503" fill="#121117" font-size="12" font-family="Segoe UI, Arial, sans-serif" font-weight="700">NEW</text>

  <rect x="760" y="280" width="300" height="220" rx="24" fill="#14131b" stroke="#d4af37" stroke-opacity="0.16" />
  <rect x="785" y="305" width="250" height="160" rx="20" fill="#1d1724" />
  <path d="M840 390h130" stroke="#f2d16b" stroke-opacity="0.75" stroke-width="10" stroke-linecap="round" />
  <path d="M835 425h140" stroke="#f2d16b" stroke-opacity="0.35" stroke-width="8" stroke-linecap="round" />
  <rect x="785" y="490" width="120" height="18" rx="9" fill="#d4af37" fill-opacity="0.85" />
  <text x="845" y="503" fill="#121117" font-size="12" font-family="Segoe UI, Arial, sans-serif" font-weight="700">Bestseller</text>

  <rect x="1090" y="280" width="290" height="470" rx="24" fill="#12121a" stroke="#d4af37" stroke-opacity="0.16" />
  <path d="M1165 610c28-68 96-118 162-118 60 0 92 22 122 60" fill="none" stroke="#d4af37" stroke-opacity="0.25" stroke-width="8" stroke-linecap="round" />
  <circle cx="1234" cy="390" r="74" fill="#1c1724" stroke="#d4af37" stroke-opacity="0.3" stroke-width="3" />
  <path d="M1210 390c8-24 25-40 46-40 22 0 39 16 47 40" fill="none" stroke="url(#accentFashion)" stroke-width="8" stroke-linecap="round" />
  <rect x="1140" y="640" width="200" height="14" rx="7" fill="#f2d16b" fill-opacity="0.16" />
  <rect x="1140" y="670" width="160" height="12" rx="6" fill="#f2d16b" fill-opacity="0.12" />

  <text x="120" y="810" fill="#f2d16b" font-size="38" font-family="Segoe UI, Arial, sans-serif" font-weight="600" letter-spacing="4">FASHIONSTORE</text>
</svg>
