<svg width="1200" height="750" viewBox="0 0 1200 750" fill="none" xmlns="http://www.w3.org/2000/svg">
  <rect width="1200" height="750" rx="32" fill="#0E1118"/>
  <rect x="80" y="90" width="1040" height="570" rx="24" fill="#151924" stroke="#D4AF37" stroke-opacity="0.3"/>
  <rect x="130" y="150" width="280" height="160" rx="18" fill="#1D2433" stroke="#D4AF37" stroke-opacity="0.25"/>
  <rect x="460" y="150" width="320" height="220" rx="18" fill="#1D2433" stroke="#D4AF37" stroke-opacity="0.25"/>
  <rect x="820" y="150" width="250" height="180" rx="18" fill="#1D2433" stroke="#D4AF37" stroke-opacity="0.25"/>
  <rect x="130" y="360" width="420" height="220" rx="18" fill="#11161F" stroke="#D4AF37" stroke-opacity="0.2"/>
  <rect x="590" y="410" width="480" height="170" rx="18" fill="#11161F" stroke="#D4AF37" stroke-opacity="0.2"/>
  <path d="M177 225H360" stroke="#D4AF37" stroke-width="8" stroke-linecap="round"/>
  <path d="M177 255H320" stroke="#F3CF55" stroke-width="6" stroke-linecap="round" opacity="0.8"/>
  <path d="M520 220H706" stroke="#D4AF37" stroke-width="8" stroke-linecap="round"/>
  <path d="M520 252H645" stroke="#F3CF55" stroke-width="6" stroke-linecap="round" opacity="0.8"/>
  <circle cx="902" cy="240" r="58" fill="#D4AF37" fill-opacity="0.18"/>
  <path d="M902 195V285" stroke="#D4AF37" stroke-width="8" stroke-linecap="round"/>
  <path d="M857 240H947" stroke="#D4AF37" stroke-width="8" stroke-linecap="round"/>
  <rect x="170" y="415" width="110" height="80" rx="12" fill="#D4AF37" fill-opacity="0.25"/>
  <rect x="310" y="415" width="110" height="80" rx="12" fill="#D4AF37" fill-opacity="0.15"/>
  <rect x="625" y="455" width="220" height="14" rx="7" fill="#D4AF37"/>
  <rect x="625" y="490" width="180" height="10" rx="5" fill="#F3CF55" fill-opacity="0.7"/>
  <rect x="660" y="520" width="200" height="10" rx="5" fill="#D4AF37" fill-opacity="0.35"/>
  <path d="M180 650C330 560 420 560 570 650" stroke="#D4AF37" stroke-opacity="0.16" stroke-width="3"/>
</svg>
