<svg xmlns="http://www.w3.org/2000/svg" viewBox="0 0 1600 900" width="1600" height="900">
  <defs>
    <linearGradient id="bgGoGrab" x1="0%" y1="0%" x2="100%" y2="100%">
      <stop offset="0%" stop-color="#14110d" />
      <stop offset="100%" stop-color="#09090d" />
    </linearGradient>
    <linearGradient id="accentGoGrab" x1="0%" y1="0%" x2="100%" y2="100%">
      <stop offset="0%" stop-color="#f6d66d" />
      <stop offset="100%" stop-color="#b8871b" />
    </linearGradient>
  </defs>

  <rect width="1600" height="900" fill="url(#bgGoGrab)" />
  <rect x="90" y="90" width="1420" height="720" rx="34" fill="#16131a" stroke="#d4af37" stroke-opacity="0.2" />

  <rect x="170" y="190" width="500" height="520" rx="34" fill="#121218" stroke="#d4af37" stroke-opacity="0.2" />
  <rect x="210" y="240" width="420" height="80" rx="18" fill="#1d1b24" />
  <text x="255" y="286" fill="#f2d16b" font-size="24" font-family="Segoe UI, Arial, sans-serif" font-weight="700">GoGrab</text>
  <rect x="210" y="345" width="420" height="120" rx="22" fill="#1b1722" />
  <circle cx="270" cy="405" r="38" fill="#d4af37" fill-opacity="0.16" stroke="#d4af37" stroke-opacity="0.7" stroke-width="2" />
  <path d="M270 380v50" stroke="#f2d16b" stroke-width="8" stroke-linecap="round" />
  <path d="M245 405h50" stroke="#f2d16b" stroke-width="8" stroke-linecap="round" />
  <rect x="335" y="375" width="220" height="16" rx="8" fill="#f2d16b" fill-opacity="0.28" />
  <rect x="335" y="405" width="180" height="14" rx="7" fill="#f2d16b" fill-opacity="0.2" />
  <rect x="210" y="490" width="420" height="150" rx="24" fill="#17151f" />
  <rect x="240" y="524" width="140" height="24" rx="12" fill="#d4af37" />
  <rect x="240" y="562" width="220" height="14" rx="7" fill="#f2d16b" fill-opacity="0.24" />
  <rect x="240" y="588" width="180" height="14" rx="7" fill="#f2d16b" fill-opacity="0.16" />
  <circle cx="560" cy="580" r="44" fill="#d4af37" fill-opacity="0.12" stroke="#d4af37" stroke-opacity="0.6" stroke-width="3" />
  <path d="M545 580h30" stroke="#f2d16b" stroke-width="8" stroke-linecap="round" />

  <rect x="760" y="205" width="640" height="480" rx="34" fill="#121218" stroke="#d4af37" stroke-opacity="0.2" />
  <path d="M840 640c70-150 200-220 320-220 110 0 170 54 220 140" fill="none" stroke="url(#accentGoGrab)" stroke-width="8" stroke-linecap="round" />
  <circle cx="930" cy="520" r="48" fill="#17151f" stroke="#d4af37" stroke-opacity="0.26" stroke-width="3" />
  <path d="M900 520h60" stroke="#f2d16b" stroke-width="8" stroke-linecap="round" />
  <path d="M930 490v60" stroke="#f2d16b" stroke-width="8" stroke-linecap="round" />
  <circle cx="1188" cy="392" r="56" fill="#17151f" stroke="#d4af37" stroke-opacity="0.26" stroke-width="3" />
  <path d="M1158 392h60" stroke="#f2d16b" stroke-width="8" stroke-linecap="round" />
  <rect x="820" y="700" width="240" height="18" rx="9" fill="#f2d16b" fill-opacity="0.2" />
  <rect x="1080" y="700" width="180" height="18" rx="9" fill="#f2d16b" fill-opacity="0.16" />

  <text x="150" y="790" fill="#f2d16b" font-size="38" font-family="Segoe UI, Arial, sans-serif" font-weight="600" letter-spacing="4">GO GRAB</text>
</svg>
